<svg width="188" height="206" viewBox="0 0 188 206" fill="none" xmlns="http://www.w3.org/2000/svg">
<g filter="url(#filter0_d_8_202)">
<path d="M0 20C0 8.95431 8.95431 0 20 0H168C179.046 0 188 8.95431 188 20V92.5C188 103.546 179.046 112.5 168 112.5H130C118.954 112.5 110 121.454 110 132.5V152V171.5C110 182.546 118.954 191.5 130 191.5H180.75C184.754 191.5 188 194.746 188 198.75C188 202.754 184.754 206 180.75 206H20C8.9543 206 0 197.046 0 186V20Z" fill="white" fill-opacity="0.5" shape-rendering="crispEdges"/>
<path d="M0.5 20C0.5 9.23045 9.23045 0.5 20 0.5H168C178.77 0.5 187.5 9.23045 187.5 20V92.5C187.5 103.27 178.77 112 168 112H130C118.678 112 109.5 121.178 109.5 132.5V152V171.5C109.5 182.822 118.678 192 130 192H180.75C184.478 192 187.5 195.022 187.5 198.75C187.5 202.478 184.478 205.5 180.75 205.5H20C9.23044 205.5 0.5 196.77 0.5 186V20Z" stroke="white" shape-rendering="crispEdges"/>
</g>
<defs>
<filter id="filter0_d_8_202" x="-20" y="-16" width="228" height="246" filterUnits="userSpaceOnUse" color-interpolation-filters="sRGB">
<feFlood flood-opacity="0" result="BackgroundImageFix"/>
<feColorMatrix in="SourceAlpha" type="matrix" values="0 0 0 0 0 0 0 0 0 0 0 0 0 0 0 0 0 0 127 0" result="hardAlpha"/>
<feOffset dy="4"/>
<feGaussianBlur stdDeviation="10"/>
<feComposite in2="hardAlpha" operator="out"/>
<feColorMatrix type="matrix" values="0 0 0 0 0.854902 0 0 0 0 0.854902 0 0 0 0 0.854902 0 0 0 1 0"/>
<feBlend mode="normal" in2="BackgroundImageFix" result="effect1_dropShadow_8_202"/>
<feBlend mode="normal" in="SourceGraphic" in2="effect1_dropShadow_8_202" result="shape"/>
</filter>
</defs>
</svg>