<svg width="24" height="24" viewBox="0 0 24 24" fill="none" xmlns="http://www.w3.org/2000/svg">
<g id="box" clip-path="url(#clip0_1290_5206)">
<path id="Vector" d="M23.8828 8.65313L21.5109 1.5375C21.2062 0.61875 20.3484 0 19.3781 0H4.62187C3.65156 0 2.79375 0.61875 2.48906 1.5375L0.117188 8.65313C0.0421875 8.88281 0 9.12187 0 9.36563V21.75C0 22.9922 1.00781 24 2.25 24H21.75C22.9922 24 24 22.9922 24 21.75V9.36563C24 9.12187 23.9625 8.88281 23.8828 8.65313ZM1.5 9.36563C1.5 9.28594 1.51406 9.20625 1.5375 9.12656L3.90938 2.01094C4.0125 1.70625 4.29844 1.5 4.62187 1.5H11.25V9.375H1.5V9.36563ZM22.5 21.75C22.5 22.1625 22.1625 22.5 21.75 22.5H2.25C1.8375 22.5 1.5 22.1625 1.5 21.75V10.875H22.5V21.75ZM22.5 9.375H12.75V1.5H19.3781C19.7016 1.5 19.9875 1.70625 20.0906 2.01094L22.4625 9.12656C22.4859 9.20156 22.5 9.28125 22.5 9.36563V9.375Z" fill="white"/>
</g>
<defs>
<clipPath id="clip0_1290_5206">
<rect width="24" height="24" fill="white"/>
</clipPath>
</defs>
</svg>
