<svg width="18" height="16" viewBox="0 0 18 16" fill="none" xmlns="http://www.w3.org/2000/svg">
<path fill-rule="evenodd" clip-rule="evenodd" d="M17.3333 13.8333C17.3333 14.7538 16.5871 15.5 15.6666 15.5H2.33329C1.41282 15.5 0.666626 14.7538 0.666626 13.8333V7.82895L0.734005 7.67173L3.25193 1.79938C3.62748 1.03451 4.10116 0.560839 4.83329 0.5H13.1666L13.2756 0.507162C13.903 0.589947 14.3625 1.04946 14.7659 1.8384L17.3333 7.82895V13.8333ZM2.33329 8.83333V13.8333H15.6666V8.83333H12.3333C12.3333 9.75381 11.5871 10.5 10.6666 10.5H7.33329C6.41282 10.5 5.66663 9.75381 5.66663 8.83333H2.33329ZM2.76374 7.16667H7.33329V8.83333H10.6666V7.16667H15.2366L13.2589 2.54774C13.1655 2.3662 13.0794 2.23879 13.0098 2.16661L4.97989 2.16353C4.91554 2.23288 4.83606 2.35441 4.76591 2.49493L2.76374 7.16667Z" fill="black"/>
</svg>
