<svg width="42" height="42" viewBox="0 0 42 42" fill="none" xmlns="http://www.w3.org/2000/svg">
<path fill-rule="evenodd" clip-rule="evenodd" d="M9.23031 17.7208C8.75 18.7651 8.75 19.9531 8.75 22.3292V29.7499C8.75 33.0497 8.75 34.6996 9.77513 35.7248C10.7872 36.7369 12.4083 36.7497 15.625 36.7499V28C15.625 26.4812 16.8562 25.25 18.375 25.25H23.625C25.1438 25.25 26.375 26.4812 26.375 28V36.7499C29.5917 36.7497 31.2128 36.7369 32.2249 35.7248C33.25 34.6996 33.25 33.0497 33.25 29.7499V22.3292C33.25 19.9531 33.25 18.7651 32.7697 17.7208C32.2894 16.6765 31.3874 15.9033 29.5833 14.357L27.8333 12.857C24.5725 10.062 22.9421 8.66455 21 8.66455C19.0579 8.66455 17.4275 10.062 14.1667 12.857L12.4167 14.357C10.6126 15.9033 9.71061 16.6765 9.23031 17.7208ZM24.375 36.7499V28C24.375 27.5858 24.0392 27.25 23.625 27.25H18.375C17.9608 27.25 17.625 27.5858 17.625 28V36.7499H24.375Z" fill="#238E9C"/>
</svg>
