<svg width="32" height="32" viewBox="0 0 32 32" fill="none" xmlns="http://www.w3.org/2000/svg">
<path d="M4 14.0867C4 13.3209 4 12.938 4.0987 12.5854C4.18614 12.273 4.32982 11.9793 4.5227 11.7185C4.74045 11.4241 5.04269 11.189 5.64719 10.7188L14.6903 3.68533C15.1587 3.32099 15.3929 3.13883 15.6515 3.0688C15.8797 3.00701 16.1203 3.00701 16.3485 3.0688C16.6071 3.13883 16.8413 3.32099 17.3097 3.68533L26.3528 10.7188C26.9573 11.189 27.2596 11.4241 27.4773 11.7185C27.6702 11.9793 27.8139 12.273 27.9013 12.5854C28 12.938 28 13.3209 28 14.0867V23.7333C28 25.2268 28 25.9735 27.7094 26.544C27.4537 27.0457 27.0457 27.4537 26.544 27.7093C25.9735 28 25.2268 28 23.7333 28H8.26667C6.77319 28 6.02646 28 5.45603 27.7093C4.95426 27.4537 4.54631 27.0457 4.29065 26.544C4 25.9735 4 25.2268 4 23.7333V14.0867Z" stroke="white" stroke-width="2.5" stroke-linecap="round" stroke-linejoin="round"/>
</svg>
