<svg width="42" height="42" viewBox="0 0 42 42" fill="none" xmlns="http://www.w3.org/2000/svg">
<path d="M8.75 22.3293C8.75 19.9533 8.75 18.7652 9.23031 17.7209C9.71061 16.6766 10.6126 15.9035 12.4167 14.3571L14.1667 12.8571C17.4275 10.0622 19.0579 8.66467 21 8.66467C22.9421 8.66467 24.5725 10.0622 27.8333 12.8571L29.5833 14.3571C31.3874 15.9035 32.2894 16.6766 32.7697 17.7209C33.25 18.7652 33.25 19.9533 33.25 22.3293V29.75C33.25 33.0498 33.25 34.6998 32.2249 35.7249C31.1997 36.75 29.5498 36.75 26.25 36.75H15.75C12.4502 36.75 10.8003 36.75 9.77513 35.7249C8.75 34.6998 8.75 33.0498 8.75 29.75V22.3293Z" stroke="#238E9C" stroke-width="2"/>
<path d="M25.375 36.75V27.25C25.375 26.6977 24.9273 26.25 24.375 26.25H17.625C17.0727 26.25 16.625 26.6977 16.625 27.25V36.75" stroke="#238E9C" stroke-width="2" stroke-linecap="round" stroke-linejoin="round"/>
</svg>
