<svg width="44" height="44" viewBox="0 0 44 44" fill="none" xmlns="http://www.w3.org/2000/svg">
<path fill-rule="evenodd" clip-rule="evenodd" d="M18.3333 6.16663C16.6764 6.16663 15.3333 7.50977 15.3333 9.16663H13.7499C11.1751 9.16663 9.88765 9.16663 8.96283 9.78457C8.56246 10.0521 8.21871 10.3958 7.9512 10.7962C7.33325 11.721 7.33325 13.0084 7.33325 15.5833V33C7.33325 36.4569 7.33325 38.1854 8.40719 39.2593C9.48114 40.3333 11.2096 40.3333 14.6666 40.3333H29.3333C32.7902 40.3333 34.5187 40.3333 35.5926 39.2593C36.6666 38.1854 36.6666 36.4569 36.6666 33V15.5833C36.6666 13.0084 36.6666 11.721 36.0486 10.7962C35.7811 10.3958 35.4374 10.0521 35.037 9.78457C34.1122 9.16663 32.8248 9.16663 30.2499 9.16663H28.6666C28.6666 7.50977 27.3234 6.16663 25.6666 6.16663H18.3333ZM19.1666 9.16663C19.1666 8.61434 19.6143 8.16663 20.1666 8.16663H23.8333C24.3855 8.16663 24.8333 8.61434 24.8333 9.16663C24.8333 9.71891 24.3855 10.1666 23.8333 10.1666H20.1666C19.6143 10.1666 19.1666 9.71891 19.1666 9.16663ZM16.4999 21C15.9476 21 15.4999 21.4477 15.4999 22C15.4999 22.5522 15.9476 23 16.4999 23H27.4999C28.0522 23 28.4999 22.5522 28.4999 22C28.4999 21.4477 28.0522 21 27.4999 21H16.4999ZM16.4999 28.3333C15.9476 28.3333 15.4999 28.781 15.4999 29.3333C15.4999 29.8856 15.9476 30.3333 16.4999 30.3333H23.8333C24.3855 30.3333 24.8333 29.8856 24.8333 29.3333C24.8333 28.781 24.3855 28.3333 23.8333 28.3333H16.4999Z" fill="#238E9C"/>
</svg>
