<?xml version="1.0" encoding="UTF-8"?>
<!DOCTYPE svg PUBLIC "-//W3C//DTD SVG 1.1//EN" "http://www.w3.org/Graphics/SVG/1.1/DTD/svg11.dtd">
<svg xmlns="http://www.w3.org/2000/svg" version="1.1" width="108px" height="112px" style="shape-rendering:geometricPrecision; text-rendering:geometricPrecision; image-rendering:optimizeQuality; fill-rule:evenodd; clip-rule:evenodd" xmlns:xlink="http://www.w3.org/1999/xlink">
<g><path style="opacity:0.998" fill="#adb3bb" d="M 75.5,13.5 C 72.2424,14.921 69.7424,17.2543 68,20.5C 67.5004,27.4921 67.3337,34.4921 67.5,41.5C 67.5,59.8333 67.5,78.1667 67.5,96.5C 66.1266,96.6567 64.7932,96.49 63.5,96C 60.5468,93.207 57.2135,91.0403 53.5,89.5C 49.1439,92.3445 44.6439,95.0112 40,97.5C 35.5609,94.6984 31.0609,92.0318 26.5,89.5C 22.7865,91.0403 19.4532,93.207 16.5,96C 15.2068,96.49 13.8734,96.6567 12.5,96.5C 12.0265,69.7691 12.5265,43.1024 14,16.5C 14.9025,15.2986 16.0692,14.4652 17.5,14C 36.8305,13.5 56.1638,13.3334 75.5,13.5 Z"/></g>
<g><path style="opacity:0.983" fill="#9da2a6" d="M 75.5,13.5 C 79.1817,13.3347 82.8484,13.5014 86.5,14C 90.3333,15.1667 92.8333,17.6667 94,21.5C 94.6667,27.5 94.6667,33.5 94,39.5C 93.5,40 93,40.5 92.5,41C 84.1733,41.4997 75.84,41.6664 67.5,41.5C 67.3337,34.4921 67.5004,27.4921 68,20.5C 69.7424,17.2543 72.2424,14.921 75.5,13.5 Z"/></g>
<g><path style="opacity:1" fill="#9fa3a8" d="M 23.5,41.5 C 34.505,41.3335 45.505,41.5002 56.5,42C 57.3366,43.0113 57.67,44.1779 57.5,45.5C 45.8333,45.5 34.1667,45.5 22.5,45.5C 22.4326,44.0413 22.7659,42.7079 23.5,41.5 Z"/></g>
<g><path style="opacity:1" fill="#9fa3a8" d="M 23.5,55.5 C 30.175,55.3337 36.8417,55.5004 43.5,56C 44.3366,57.0113 44.67,58.1779 44.5,59.5C 37.1667,59.5 29.8333,59.5 22.5,59.5C 22.4326,58.0413 22.7659,56.7079 23.5,55.5 Z"/></g>
<g><path style="opacity:1" fill="#9fa3a8" d="M 23.5,69.5 C 33.1724,69.3335 42.8391,69.5002 52.5,70C 53.3366,71.0113 53.67,72.1779 53.5,73.5C 43.1667,73.5 32.8333,73.5 22.5,73.5C 22.4326,72.0413 22.7659,70.7079 23.5,69.5 Z"/></g>
</svg>
