<svg width="20" height="20" viewBox="0 0 20 20" fill="none" xmlns="http://www.w3.org/2000/svg">
<g clip-path="url(#clip0_108_2976)">
<path d="M1.16403 19.2612C1.51872 19.6455 2.97966 18.9752 4.13278 18.4377C4.99685 18.0362 8.45466 16.6174 10.1734 15.8815C10.6375 15.683 11.3125 15.4237 11.7984 14.7846C12.2297 14.2159 13.3734 11.8002 11.0703 9.35335C8.73278 6.86898 6.32497 7.55491 5.42497 8.19241C4.89528 8.56741 4.46403 9.41273 4.27028 9.84241C3.45153 11.658 2.28435 14.9846 1.80935 16.2924C1.46091 17.2565 0.812471 18.8799 1.16403 19.2612Z" fill="#FFC107"/>
<path d="M4.03905 10.3892C4.06093 10.661 4.11561 11.1032 4.30311 11.9548C4.43124 12.5392 4.64061 13.1517 4.81093 13.5563C5.32186 14.7735 6.03905 15.2642 6.76561 15.6579C7.99999 16.3267 8.83905 16.4517 8.83905 16.4517L7.8328 16.8626C7.8328 16.8626 7.22342 16.736 6.39217 16.3267C5.59999 15.936 4.77499 15.2751 4.17186 13.9813C3.91093 13.4204 3.75936 12.8767 3.67186 12.4454C3.56405 11.911 3.54686 11.6079 3.54686 11.6079L4.03905 10.3892ZM2.80311 13.5579C2.80311 13.5579 2.92811 14.572 3.76561 15.8517C4.74686 17.3485 6.11718 17.5938 6.11718 17.5938L5.20624 17.9688C5.20624 17.9688 4.18905 17.6579 3.22186 16.3376C2.61874 15.5142 2.44999 14.5298 2.44999 14.5298L2.80311 13.5579ZM1.93593 15.961C1.93593 15.961 2.16405 16.836 2.66405 17.4892C3.25936 18.2688 4.01717 18.4954 4.01717 18.4954L3.31874 18.8048C3.31874 18.8048 2.78905 18.6938 2.20936 17.9595C1.76874 17.4017 1.64374 16.761 1.64374 16.761L1.93593 15.961Z" fill="#FF8F00"/>
<path opacity="0.44" d="M1.55627 18.1828C1.52502 18.1125 1.52502 18.0328 1.55783 17.9641L5.53752 9.71094L6.1922 12.1719L2.0047 18.2203C1.8922 18.3891 1.63908 18.3672 1.55627 18.1828Z" fill="#FFFDE7"/>
<path d="M6.5078 12.9987C8.36718 15.1737 10.4844 14.9018 11.1891 14.3518C11.8953 13.8002 12.4531 11.9049 10.6016 9.76586C8.66093 7.52523 6.46405 8.16429 5.95624 8.64867C5.44843 9.13304 4.80155 11.0034 6.5078 12.9987Z" fill="url(#paint0_linear_108_2976)"/>
<path d="M12.8937 13.8937C12.2156 13.3249 11.8547 13.4265 11.3703 13.628C10.7453 13.8874 9.76248 14.0796 8.4281 13.628L8.82966 12.6608C9.62185 12.928 10.1953 12.7983 10.6906 12.5062C11.3281 12.1312 12.2 11.6171 13.5562 12.7562C14.1219 13.2312 14.7015 13.5468 15.1265 13.403C15.4359 13.2999 15.6 12.839 15.6828 12.4718C15.6906 12.439 15.7031 12.3452 15.7125 12.2624C15.7875 11.689 15.9125 10.4515 16.8344 9.81865C17.8203 9.14209 18.8562 9.14209 18.8562 9.14209L19.0437 11.0046C18.5672 10.9343 18.2359 11.0312 17.9562 11.1858C16.9031 11.7718 17.8203 14.0218 16.1812 14.778C14.6047 15.5108 13.3156 14.2468 12.8937 13.8937Z" fill="#03A9F4"/>
<path d="M7.09376 11.5188L6.41564 10.9109C7.66095 9.52031 7.33282 8.49844 7.09376 7.75469C7.04532 7.60469 7.00001 7.4625 6.97032 7.32656C6.86407 6.84531 6.8422 6.42656 6.87501 6.06094C6.39688 5.46563 6.18595 4.84219 6.17188 4.8C5.88126 3.92031 6.10001 3.0625 6.60157 2.25781C7.61563 0.625 9.45157 0.625 9.45157 0.625L10.0641 2.26406C9.59845 2.24531 8.07188 2.26875 7.60313 3.00781C7.01095 3.93906 7.40001 4.51406 7.42814 4.57969C7.5422 4.43125 7.65782 4.3125 7.76095 4.22031C8.50938 3.55625 9.15938 3.46094 9.57345 3.49844C10.0391 3.54062 10.4609 3.775 10.7625 4.15938C11.0922 4.58125 11.2281 5.12969 11.1234 5.62813C11.0219 6.11406 10.6984 6.525 10.2125 6.78594C9.36407 7.24219 8.65782 7.17969 8.18439 7.02187C8.18751 7.03281 8.18907 7.04531 8.1922 7.05625C8.20938 7.13438 8.24376 7.24375 8.28438 7.37031C8.56095 8.22656 9.07501 9.58594 7.09376 11.5188ZM8.2422 5.65469C8.33282 5.72031 8.42813 5.775 8.52657 5.81406C8.8547 5.94531 9.21251 5.90156 9.61876 5.68281C9.85782 5.55469 9.88595 5.41719 9.89532 5.37188C9.92345 5.23594 9.87657 5.0625 9.77501 4.93281C9.68595 4.81875 9.58282 4.75938 9.45939 4.74687C9.22501 4.72656 8.90782 4.875 8.59063 5.15781C8.43907 5.29375 8.32345 5.46094 8.2422 5.65469Z" fill="#F44336"/>
<path d="M9.80784 11.7733L8.83752 11.7468C8.83752 11.7468 9.29846 9.14365 10.7906 8.70615C11.0703 8.6249 11.3766 8.54209 11.6844 8.49678C11.8672 8.46865 12.1563 8.42647 12.2985 8.37334C12.3313 8.12803 12.2281 7.81553 12.1125 7.46084C12.0219 7.18584 11.9281 6.90303 11.8781 6.59365C11.7813 5.99053 11.9422 5.45772 12.3313 5.09053C12.8063 4.64522 13.5735 4.50303 14.4391 4.6999C14.9328 4.8124 15.2969 5.05459 15.6172 5.26709C16.075 5.57178 16.3422 5.72647 16.9016 5.3499C17.5781 4.89365 16.6938 3.10772 16.2235 2.07646L17.9781 1.34521C18.2141 1.86084 19.3531 4.51397 18.6016 6.02803C18.3485 6.5374 17.9125 6.8749 17.3406 7.00147C16.0969 7.27959 15.3688 6.79522 14.8375 6.44209C14.586 6.2749 14.3656 6.14365 14.1266 6.0749C12.4656 5.60147 14.7844 8.04522 13.6985 9.14365C13.0469 9.80147 11.4547 9.9749 11.3516 9.9999C10.3266 10.2468 9.80784 11.7733 9.80784 11.7733Z" fill="#F48FB1"/>
<path d="M6.87344 6.06104C6.84375 6.40479 6.82969 6.60947 6.91875 7.05635C7.34844 7.37197 8.28438 7.37197 8.28438 7.37197C8.24375 7.24541 8.20782 7.13603 8.19219 7.05791C8.18907 7.04697 8.1875 7.03447 8.18438 7.02354C7.23282 6.54854 6.87344 6.06104 6.87344 6.06104Z" fill="#C92B27"/>
<path d="M4.92654 7.6002L3.31091 6.80801L4.1156 5.64551L5.38279 6.48457L4.92654 7.6002Z" fill="#FFC107"/>
<path d="M2.54529 5.40615C1.72029 5.29521 0.879663 4.59521 0.787476 4.51553L1.59841 3.56396C1.84373 3.77178 2.36404 4.12021 2.71248 4.16709L2.54529 5.40615Z" fill="#FB8C00"/>
<path d="M4.00159 3.32334L2.81409 2.93428C2.95002 2.51865 2.98596 2.07021 2.91565 1.6374L4.15002 1.43896C4.25159 2.06709 4.20002 2.71865 4.00159 3.32334Z" fill="#03A9F4"/>
<path d="M11.4177 2.39463L12.6388 2.12744L12.9914 3.73932L11.7703 4.0065L11.4177 2.39463Z" fill="#FB8C00"/>
<path d="M14.4469 2.77637L13.5875 1.86855C14.0375 1.44199 14.1406 0.88418 14.1406 0.87793L15.375 1.07949C15.3594 1.17793 15.2016 2.0623 14.4469 2.77637Z" fill="#FFC107"/>
<path d="M14.9241 7.59076L16.0158 7.24951L16.3886 8.44264L15.2969 8.78389L14.9241 7.59076Z" fill="#FB8C00"/>
<path d="M15.2422 17.6607L14 17.5139C14.0531 17.0717 13.7234 16.5295 13.6328 16.4092L14.6328 15.6592C14.7078 15.7576 15.3594 16.6592 15.2422 17.6607Z" fill="#F44336"/>
<path d="M18.8078 16.0767C18.3406 16.0064 17.8625 15.9783 17.3906 15.9955L17.3484 14.7455C17.8969 14.7267 18.4516 14.758 18.9938 14.8408L18.8078 16.0767Z" fill="#FB8C00"/>
<path d="M17.1272 17.7972L18.0053 16.9077L19.2139 18.1012L18.3358 18.9905L17.1272 17.7972Z" fill="#F48FB1"/>
<path d="M14.5474 9.896L15.4505 10.9287L14.4178 11.8318L13.5147 10.7991L14.5474 9.896Z" fill="#F44336"/>
</g>
<defs>
<linearGradient id="paint0_linear_108_2976" x1="11.6225" y1="9.66258" x2="6.9714" y2="12.4532" gradientUnits="userSpaceOnUse">
<stop offset="0.024" stop-color="#8F4700"/>
<stop offset="1" stop-color="#703E2D"/>
</linearGradient>
<clipPath id="clip0_108_2976">
<rect width="20" height="20" fill="white"/>
</clipPath>
</defs>
</svg>
