<svg width="49" height="49" viewBox="0 0 49 49" fill="none" xmlns="http://www.w3.org/2000/svg">
<path fill-rule="evenodd" clip-rule="evenodd" d="M4.0835 24.5C4.0835 13.2242 13.2243 4.08334 24.5002 4.08334C35.776 4.08334 44.9168 13.2242 44.9168 24.5C44.9168 31.0515 41.831 36.8823 37.0335 40.6181C36.1902 38.1591 34.6393 35.9954 32.5663 34.4047C30.2522 32.6291 27.4169 31.6667 24.5002 31.6667C21.5834 31.6667 18.7481 32.6291 16.4341 34.4047C14.3611 35.9954 12.8101 38.1591 11.9668 40.6181C7.16932 36.8823 4.0835 31.0515 4.0835 24.5ZM31.3487 35.9914C33.2627 37.4601 34.6524 39.5039 35.3155 41.8199C32.1795 43.7823 28.4723 44.9167 24.5002 44.9167C20.528 44.9167 16.8208 43.7823 13.6848 41.8199C14.3479 39.5039 15.7377 37.4601 17.6516 35.9914C19.6163 34.4838 22.0237 33.6667 24.5002 33.6667C26.9767 33.6667 29.384 34.4838 31.3487 35.9914ZM19.3752 18.375C19.3752 15.5445 21.6697 13.25 24.5002 13.25C27.3306 13.25 29.6252 15.5445 29.6252 18.375C29.6252 21.2055 27.3306 23.5 24.5002 23.5C21.6697 23.5 19.3752 21.2055 19.3752 18.375ZM24.5002 11.25C20.5651 11.25 17.3752 14.44 17.3752 18.375C17.3752 22.31 20.5651 25.5 24.5002 25.5C28.4352 25.5 31.6252 22.31 31.6252 18.375C31.6252 14.44 28.4352 11.25 24.5002 11.25Z" fill="#238E9C"/>
<rect x="4.5835" y="4.58334" width="39.8333" height="39.8333" rx="19.9167" stroke="#238E9C"/>
</svg>
