<svg width="39" height="39" viewBox="0 0 39 39" fill="none" xmlns="http://www.w3.org/2000/svg">
<path d="M8.50608 31.1016C9.47941 28.8085 11.7519 27.2002 14.4 27.2002H24C26.6481 27.2002 28.9206 28.8085 29.8939 31.1016M25.6 15.2002C25.6 18.7348 22.7346 21.6002 19.2 21.6002C15.6654 21.6002 12.8 18.7348 12.8 15.2002C12.8 11.6656 15.6654 8.8002 19.2 8.8002C22.7346 8.8002 25.6 11.6656 25.6 15.2002ZM35.2 19.2002C35.2 28.0368 28.0366 35.2002 19.2 35.2002C10.3635 35.2002 3.20001 28.0368 3.20001 19.2002C3.20001 10.3636 10.3635 3.2002 19.2 3.2002C28.0366 3.2002 35.2 10.3636 35.2 19.2002Z" stroke="white" stroke-width="2.5" stroke-linecap="round" stroke-linejoin="round"/>
</svg>
