<svg width="32" height="32" viewBox="0 0 32 32" fill="none" xmlns="http://www.w3.org/2000/svg">
<path fill-rule="evenodd" clip-rule="evenodd" d="M21.3334 2.6665H26.9091C28.248 2.6665 29.3334 3.86041 29.3334 5.33317V10.6665H26.6667V5.33317H21.3334V2.6665ZM2.66669 17.3332V14.6665H29.3334V17.3332H2.66669ZM21.3334 29.3332V26.6665H26.6667V21.3332H29.3334V26.6665C29.3334 28.1393 28.248 29.3332 26.9091 29.3332H21.3334ZM5.09093 29.3332H10.6667V26.6665H5.33335V21.3332H2.66669V26.6665C2.66669 28.1393 3.75206 29.3332 5.09093 29.3332ZM10.6667 5.33317V2.6665H5.09093C3.75206 2.6665 2.66669 3.86041 2.66669 5.33317V10.6665H5.33335V5.33317H10.6667Z" fill="white"/>
</svg>
