<svg width="40" height="40" viewBox="0 0 40 40" fill="none" xmlns="http://www.w3.org/2000/svg">
<path d="M14.3167 22.5168L25.7 29.1502M25.6833 10.8502L14.3167 17.4835M35 8.3335C35 11.0949 32.7614 13.3335 30 13.3335C27.2386 13.3335 25 11.0949 25 8.3335C25 5.57207 27.2386 3.3335 30 3.3335C32.7614 3.3335 35 5.57207 35 8.3335ZM15 20.0002C15 22.7616 12.7614 25.0002 10 25.0002C7.23858 25.0002 5 22.7616 5 20.0002C5 17.2387 7.23858 15.0002 10 15.0002C12.7614 15.0002 15 17.2387 15 20.0002ZM35 31.6668C35 34.4283 32.7614 36.6668 30 36.6668C27.2386 36.6668 25 34.4283 25 31.6668C25 28.9054 27.2386 26.6668 30 26.6668C32.7614 26.6668 35 28.9054 35 31.6668Z" stroke="black" stroke-width="2" stroke-linecap="round" stroke-linejoin="round"/>
</svg>
