<?xml version="1.0" encoding="UTF-8"?>
<!DOCTYPE svg PUBLIC "-//W3C//DTD SVG 1.1//EN" "http://www.w3.org/Graphics/SVG/1.1/DTD/svg11.dtd">
<svg xmlns="http://www.w3.org/2000/svg" version="1.1" width="120px" height="121px" style="shape-rendering:geometricPrecision; text-rendering:geometricPrecision; image-rendering:optimizeQuality; fill-rule:evenodd; clip-rule:evenodd" xmlns:xlink="http://www.w3.org/1999/xlink">
<g><path style="opacity:0.985" fill="#9ea1a6" d="M 84.5,55.5 C 83.5892,50.1652 81.9225,45.1652 79.5,40.5C 79.1667,37.8333 78.8333,37.8333 78.5,40.5C 78.5,41.1667 78.5,41.8333 78.5,42.5C 79.2949,46.7853 79.6282,51.1186 79.5,55.5C 73.5,55.5 67.5,55.5 61.5,55.5C 60.8379,51.5341 60.5045,47.5341 60.5,43.5C 59.8333,31.5 59.1667,31.5 58.5,43.5C 58.4955,47.5341 58.1621,51.5341 57.5,55.5C 51.5,55.5 45.5,55.5 39.5,55.5C 39.3718,51.1186 39.7051,46.7853 40.5,42.5C 40.5,41.8333 40.5,41.1667 40.5,40.5C 40.1667,37.8333 39.8333,37.8333 39.5,40.5C 37.5683,44.1953 36.235,48.1953 35.5,52.5C 35.5858,53.4959 35.2524,54.3292 34.5,55C 27.8417,55.4996 21.175,55.6663 14.5,55.5C 17.1317,42.1395 20.4651,28.9728 24.5,16C 36.099,14.8645 47.7657,14.3645 59.5,14.5C 71.2343,14.3645 82.901,14.8645 94.5,16C 98.5349,28.9728 101.868,42.1395 104.5,55.5C 97.8333,55.5 91.1667,55.5 84.5,55.5 Z"/></g>
<g><path style="opacity:0.601" fill="#aaafb7" d="M 60.5,43.5 C 59.8333,43.5 59.1667,43.5 58.5,43.5C 59.1667,31.5 59.8333,31.5 60.5,43.5 Z"/></g>
<g><path style="opacity:1" fill="#a8acb4" d="M 78.5,40.5 C 78.8333,40.5 79.1667,40.5 79.5,40.5C 81.9225,45.1652 83.5892,50.1652 84.5,55.5C 82.5,51.1667 80.5,46.8333 78.5,42.5C 78.5,41.8333 78.5,41.1667 78.5,40.5 Z"/></g>
<g><path style="opacity:0.749" fill="#a9afb7" d="M 39.5,40.5 C 39.8333,40.5 40.1667,40.5 40.5,40.5C 40.5,41.1667 40.5,41.8333 40.5,42.5C 38.8333,45.8333 37.1667,49.1667 35.5,52.5C 36.235,48.1953 37.5683,44.1953 39.5,40.5 Z"/></g>
<g><path style="opacity:0.995" fill="#adb3bb" d="M 72.5,105.5 C 72.6664,97.4931 72.4997,89.4931 72,81.5C 69.6067,76.0961 65.4401,74.0961 59.5,75.5C 53.5599,74.0961 49.3933,76.0961 47,81.5C 46.5003,89.4931 46.3336,97.4931 46.5,105.5C 39.2454,105.813 32.0787,105.48 25,104.5C 24.3333,89.8333 24.3333,75.1667 25,60.5C 28.8105,58.9347 32.8105,57.9347 37,57.5C 51.8619,57.6381 66.6953,57.6381 81.5,57.5C 85.7974,58.0554 89.9641,59.0554 94,60.5C 94.6667,75.1667 94.6667,89.8333 94,104.5C 86.9213,105.48 79.7546,105.813 72.5,105.5 Z"/></g>
<g><path style="opacity:0.996" fill="#9ea2a7" d="M 72.5,105.5 C 63.8333,105.5 55.1667,105.5 46.5,105.5C 46.3336,97.4931 46.5003,89.4931 47,81.5C 49.3933,76.0961 53.5599,74.0961 59.5,75.5C 65.4401,74.0961 69.6067,76.0961 72,81.5C 72.4997,89.4931 72.6664,97.4931 72.5,105.5 Z"/></g>
</svg>
