<?xml version="1.0" encoding="UTF-8"?>
<!DOCTYPE svg PUBLIC "-//W3C//DTD SVG 1.1//EN" "http://www.w3.org/Graphics/SVG/1.1/DTD/svg11.dtd">
<svg xmlns="http://www.w3.org/2000/svg" version="1.1" width="120px" height="121px" style="shape-rendering:geometricPrecision; text-rendering:geometricPrecision; image-rendering:optimizeQuality; fill-rule:evenodd; clip-rule:evenodd" xmlns:xlink="http://www.w3.org/1999/xlink">
<g><path style="opacity:0.934" fill="#9ea2a7" d="M 56.5,9.5 C 84.0889,10.3652 101.589,24.0318 109,50.5C 112.234,81.898 98.7336,101.731 68.5,110C 38.0444,112.867 18.5444,99.7005 10,70.5C 7.22211,36.0006 22.7221,15.6672 56.5,9.5 Z M 56.5,26.5 C 69.3753,26.3732 76.7086,32.7065 78.5,45.5C 74.6921,61.7364 65.0255,66.903 49.5,61C 38.7782,51.56 38.1115,41.56 47.5,31C 50.4375,29.1991 53.4375,27.6991 56.5,26.5 Z M 88.5,94.5 C 87.4206,96.543 85.754,97.8763 83.5,98.5C 74.4554,84.3203 62.1221,80.4869 46.5,87C 41.9273,90.0703 38.2607,93.9036 35.5,98.5C 33.2512,97.9202 31.5846,96.5869 30.5,94.5C 39.1184,80.0307 51.7851,74.5307 68.5,78C 77.7852,80.4623 84.4518,85.9623 88.5,94.5 Z"/></g>
<g><path style="opacity:0.996" fill="#adb3bb" d="M 88.5,94.5 C 84.4518,85.9623 77.7852,80.4623 68.5,78C 51.7851,74.5307 39.1184,80.0307 30.5,94.5C 25.5178,91.6828 21.6844,87.6828 19,82.5C 8.46974,59.1393 12.9697,39.306 32.5,23C 49.883,12.0639 67.5497,11.7306 85.5,22C 108.047,41.1109 111.547,63.2776 96,88.5C 93.8943,91.1177 91.3943,93.1177 88.5,94.5 Z M 56.5,26.5 C 53.4375,27.6991 50.4375,29.1991 47.5,31C 38.1115,41.56 38.7782,51.56 49.5,61C 65.0255,66.903 74.6921,61.7364 78.5,45.5C 76.7086,32.7065 69.3753,26.3732 56.5,26.5 Z"/></g>
<g><path style="opacity:0.985" fill="#adb3bb" d="M 57.5,33.5 C 70.1877,35.2055 73.6877,41.8722 68,53.5C 60.6588,58.21 54.3255,57.21 49,50.5C 46.5878,41.9895 49.4211,36.3229 57.5,33.5 Z"/></g>
<g><path style="opacity:0.989" fill="#adb3bb" d="M 83.5,98.5 C 72.6859,106.359 60.6859,108.526 47.5,105C 42.8228,103.85 38.8228,101.683 35.5,98.5C 38.2607,93.9036 41.9273,90.0703 46.5,87C 62.1221,80.4869 74.4554,84.3203 83.5,98.5 Z"/></g>
</svg>
