<svg width="26" height="22" viewBox="0 0 26 22" fill="none" xmlns="http://www.w3.org/2000/svg">
<path d="M15.4059 1H10.5941C6.05816 1 3.79021 1 2.38025 2.465C1.40827 3.4725 1.10707 4.90375 1.01228 7.23625C0.994277 7.69875 0.984677 7.93125 1.06748 8.085C1.15147 8.23875 1.48147 8.4325 2.14385 8.8175C2.51696 9.03418 2.82776 9.35072 3.04412 9.73441C3.26048 10.1181 3.37456 10.555 3.37456 11C3.37456 11.445 3.26048 11.8819 3.04412 12.2656C2.82776 12.6493 2.51696 12.9658 2.14385 13.1825C1.48147 13.5688 1.15027 13.7612 1.06748 13.915C0.984677 14.0687 0.994277 14.3 1.01348 14.7625C1.10707 17.0963 1.40947 18.5275 2.38025 19.535C3.78901 21 6.05696 21 10.5941 21H15.4059C19.9418 21 22.2098 21 23.6198 19.535C24.5917 18.5275 24.8929 17.0962 24.9877 14.7637C25.0057 14.3012 25.0153 14.0687 24.9325 13.915C24.8485 13.7612 24.5185 13.5688 23.8561 13.1825C23.483 12.9658 23.1722 12.6493 22.9559 12.2656C22.7395 11.8819 22.6254 11.445 22.6254 11C22.6254 10.555 22.7395 10.1181 22.9559 9.73441C23.1722 9.35072 23.483 9.03418 23.8561 8.8175C24.5185 8.4325 24.8497 8.23875 24.9325 8.085C25.0153 7.93125 25.0057 7.7 24.9865 7.23625C24.8929 4.90375 24.5905 3.47375 23.6198 2.465C22.211 1 19.943 1 15.4059 1Z" stroke="#238E9C" stroke-width="1.5"/>
<path d="M9.40009 14.75L16.5999 7.25" stroke="#238E9C" stroke-width="1.5" stroke-linecap="round"/>
<path d="M17.1999 14.125C17.1999 14.4565 17.0735 14.7745 16.8485 15.0089C16.6234 15.2433 16.3182 15.375 15.9999 15.375C15.6817 15.375 15.3765 15.2433 15.1514 15.0089C14.9264 14.7745 14.8 14.4565 14.8 14.125C14.8 13.7935 14.9264 13.4755 15.1514 13.2411C15.3765 13.0067 15.6817 12.875 15.9999 12.875C16.3182 12.875 16.6234 13.0067 16.8485 13.2411C17.0735 13.4755 17.1999 13.7935 17.1999 14.125ZM11.2001 7.875C11.2001 8.20652 11.0736 8.52446 10.8486 8.75888C10.6236 8.9933 10.3183 9.125 10.0001 9.125C9.68183 9.125 9.37661 8.9933 9.15157 8.75888C8.92654 8.52446 8.80011 8.20652 8.80011 7.875C8.80011 7.54348 8.92654 7.22554 9.15157 6.99112C9.37661 6.7567 9.68183 6.625 10.0001 6.625C10.3183 6.625 10.6236 6.7567 10.8486 6.99112C11.0736 7.22554 11.2001 7.54348 11.2001 7.875Z" fill="#238E9C"/>
</svg>
